<mxfile host="app.diagrams.net" agent="Mozilla/5.0 (Macintosh; Intel Mac OS X 10_15_7) AppleWebKit/537.36 (KHTML, like Gecko) Chrome/134.0.0.0 Safari/537.36" version="26.2.3">
  <diagram name="Page-1" id="Wwo5tz0wFV-s_nZwgho0">
    <mxGraphModel dx="1456" dy="677" grid="0" gridSize="10" guides="1" tooltips="1" connect="1" arrows="1" fold="1" page="1" pageScale="1" pageWidth="3300" pageHeight="4681" math="0" shadow="0">
      <root>
        <mxCell id="0" />
        <mxCell id="1" parent="0" />
        <mxCell id="tHKJMBJ2TUP7fWaP2HwY-1" value="Address" style="rounded=0;whiteSpace=wrap;html=1;" parent="1" vertex="1">
          <mxGeometry x="448" y="207" width="110" height="30" as="geometry" />
        </mxCell>
        <mxCell id="tHKJMBJ2TUP7fWaP2HwY-2" value="Phone" style="rounded=0;whiteSpace=wrap;html=1;" parent="1" vertex="1">
          <mxGeometry x="558" y="207" width="110" height="30" as="geometry" />
        </mxCell>
        <mxCell id="tHKJMBJ2TUP7fWaP2HwY-3" value="User_ID" style="rounded=0;whiteSpace=wrap;html=1;" parent="1" vertex="1">
          <mxGeometry x="473" y="617" width="110" height="30" as="geometry" />
        </mxCell>
        <mxCell id="tHKJMBJ2TUP7fWaP2HwY-52" value="&lt;u&gt;Store_ID&lt;/u&gt;" style="rounded=0;whiteSpace=wrap;html=1;" parent="1" vertex="1">
          <mxGeometry x="338" y="207" width="110" height="30" as="geometry" />
        </mxCell>
        <mxCell id="tHKJMBJ2TUP7fWaP2HwY-54" value="&lt;b&gt;STORE&lt;/b&gt;" style="text;html=1;align=center;verticalAlign=middle;resizable=0;points=[];autosize=1;strokeColor=none;fillColor=none;" parent="1" vertex="1">
          <mxGeometry x="333" y="187" width="60" height="30" as="geometry" />
        </mxCell>
        <mxCell id="tHKJMBJ2TUP7fWaP2HwY-58" value="Name" style="rounded=0;whiteSpace=wrap;html=1;" parent="1" vertex="1">
          <mxGeometry x="583" y="617" width="110" height="30" as="geometry" />
        </mxCell>
        <mxCell id="tHKJMBJ2TUP7fWaP2HwY-59" value="Address" style="rounded=0;whiteSpace=wrap;html=1;" parent="1" vertex="1">
          <mxGeometry x="693" y="617" width="110" height="30" as="geometry" />
        </mxCell>
        <mxCell id="tHKJMBJ2TUP7fWaP2HwY-60" value="Password" style="rounded=0;whiteSpace=wrap;html=1;" parent="1" vertex="1">
          <mxGeometry x="803" y="617" width="110" height="30" as="geometry" />
        </mxCell>
        <mxCell id="tHKJMBJ2TUP7fWaP2HwY-69" value="&lt;b&gt;MEMBER&lt;/b&gt;" style="text;html=1;align=center;verticalAlign=middle;resizable=0;points=[];autosize=1;strokeColor=none;fillColor=none;" parent="1" vertex="1">
          <mxGeometry x="353" y="597" width="80" height="30" as="geometry" />
        </mxCell>
        <mxCell id="tHKJMBJ2TUP7fWaP2HwY-70" value="&lt;u&gt;Movie_ID&lt;/u&gt;" style="rounded=0;whiteSpace=wrap;html=1;" parent="1" vertex="1">
          <mxGeometry x="643" y="527" width="110" height="30" as="geometry" />
        </mxCell>
        <mxCell id="tHKJMBJ2TUP7fWaP2HwY-71" value="Actor2" style="rounded=0;whiteSpace=wrap;html=1;" parent="1" vertex="1">
          <mxGeometry x="1303" y="527" width="110" height="30" as="geometry" />
        </mxCell>
        <mxCell id="tHKJMBJ2TUP7fWaP2HwY-72" value="Actor1" style="rounded=0;whiteSpace=wrap;html=1;" parent="1" vertex="1">
          <mxGeometry x="1193" y="527" width="110" height="30" as="geometry" />
        </mxCell>
        <mxCell id="tHKJMBJ2TUP7fWaP2HwY-73" value="Director" style="rounded=0;whiteSpace=wrap;html=1;" parent="1" vertex="1">
          <mxGeometry x="1083" y="527" width="110" height="30" as="geometry" />
        </mxCell>
        <mxCell id="tHKJMBJ2TUP7fWaP2HwY-74" value="Producer" style="rounded=0;whiteSpace=wrap;html=1;" parent="1" vertex="1">
          <mxGeometry x="973" y="527" width="110" height="30" as="geometry" />
        </mxCell>
        <mxCell id="tHKJMBJ2TUP7fWaP2HwY-75" value="Genre" style="rounded=0;whiteSpace=wrap;html=1;" parent="1" vertex="1">
          <mxGeometry x="863" y="527" width="110" height="30" as="geometry" />
        </mxCell>
        <mxCell id="tHKJMBJ2TUP7fWaP2HwY-76" value="Title" style="rounded=0;whiteSpace=wrap;html=1;" parent="1" vertex="1">
          <mxGeometry x="753" y="527" width="110" height="30" as="geometry" />
        </mxCell>
        <mxCell id="tHKJMBJ2TUP7fWaP2HwY-77" value="&lt;b&gt;&amp;nbsp;MOVIE&lt;/b&gt;" style="text;html=1;align=center;verticalAlign=middle;resizable=0;points=[];autosize=1;strokeColor=none;fillColor=none;" parent="1" vertex="1">
          <mxGeometry x="628" y="507" width="70" height="30" as="geometry" />
        </mxCell>
        <mxCell id="tHKJMBJ2TUP7fWaP2HwY-80" value="Features" style="rounded=0;whiteSpace=wrap;html=1;" parent="1" vertex="1">
          <mxGeometry x="780.5" y="277" width="110" height="30" as="geometry" />
        </mxCell>
        <mxCell id="tHKJMBJ2TUP7fWaP2HwY-81" value="Rent_Per_Day" style="rounded=0;whiteSpace=wrap;html=1;" parent="1" vertex="1">
          <mxGeometry x="973" y="389" width="110" height="30" as="geometry" />
        </mxCell>
        <mxCell id="C4_qEH-SMhasa9ndvBkx-17" style="edgeStyle=orthogonalEdgeStyle;rounded=0;orthogonalLoop=1;jettySize=auto;html=1;exitX=0.5;exitY=1;exitDx=0;exitDy=0;entryX=0.75;entryY=0;entryDx=0;entryDy=0;" parent="1" source="tHKJMBJ2TUP7fWaP2HwY-82" target="tHKJMBJ2TUP7fWaP2HwY-70" edge="1">
          <mxGeometry relative="1" as="geometry" />
        </mxCell>
        <mxCell id="tHKJMBJ2TUP7fWaP2HwY-82" value="Movie_ID" style="rounded=0;whiteSpace=wrap;html=1;" parent="1" vertex="1">
          <mxGeometry x="863" y="389" width="110" height="30" as="geometry" />
        </mxCell>
        <mxCell id="C4_qEH-SMhasa9ndvBkx-12" style="edgeStyle=orthogonalEdgeStyle;rounded=0;orthogonalLoop=1;jettySize=auto;html=1;exitX=0.5;exitY=0;exitDx=0;exitDy=0;entryX=0.5;entryY=1;entryDx=0;entryDy=0;" parent="1" source="tHKJMBJ2TUP7fWaP2HwY-83" target="tHKJMBJ2TUP7fWaP2HwY-52" edge="1">
          <mxGeometry relative="1" as="geometry" />
        </mxCell>
        <mxCell id="tHKJMBJ2TUP7fWaP2HwY-83" value="Store_ID" style="rounded=0;whiteSpace=wrap;html=1;" parent="1" vertex="1">
          <mxGeometry x="483" y="307" width="110" height="30" as="geometry" />
        </mxCell>
        <mxCell id="C4_qEH-SMhasa9ndvBkx-20" style="edgeStyle=orthogonalEdgeStyle;rounded=0;orthogonalLoop=1;jettySize=auto;html=1;exitX=0.5;exitY=1;exitDx=0;exitDy=0;entryX=0.865;entryY=0.96;entryDx=0;entryDy=0;entryPerimeter=0;" parent="1" source="tHKJMBJ2TUP7fWaP2HwY-84" target="tHKJMBJ2TUP7fWaP2HwY-85" edge="1">
          <mxGeometry relative="1" as="geometry">
            <mxPoint x="512.9999999999991" y="387" as="targetPoint" />
            <Array as="points">
              <mxPoint x="726" y="387" />
              <mxPoint x="468" y="387" />
            </Array>
          </mxGeometry>
        </mxCell>
        <mxCell id="tHKJMBJ2TUP7fWaP2HwY-84" value="Object_ID" style="rounded=0;whiteSpace=wrap;html=1;" parent="1" vertex="1">
          <mxGeometry x="670.5" y="277" width="110" height="30" as="geometry" />
        </mxCell>
        <mxCell id="tHKJMBJ2TUP7fWaP2HwY-85" value="&lt;u&gt;Object_ID&lt;/u&gt;" style="rounded=0;whiteSpace=wrap;html=1;" parent="1" vertex="1">
          <mxGeometry x="373" y="307" width="110" height="30" as="geometry" />
        </mxCell>
        <mxCell id="tHKJMBJ2TUP7fWaP2HwY-87" value="&lt;b&gt;STORE_OBJECT&lt;/b&gt;" style="text;html=1;align=center;verticalAlign=middle;resizable=0;points=[];autosize=1;strokeColor=none;fillColor=none;" parent="1" vertex="1">
          <mxGeometry x="363" y="287" width="120" height="30" as="geometry" />
        </mxCell>
        <mxCell id="tHKJMBJ2TUP7fWaP2HwY-89" value="End_Date" style="rounded=0;whiteSpace=wrap;html=1;" parent="1" vertex="1">
          <mxGeometry x="613" y="419" width="110" height="30" as="geometry" />
        </mxCell>
        <mxCell id="tHKJMBJ2TUP7fWaP2HwY-90" value="Start_Date" style="rounded=0;whiteSpace=wrap;html=1;" parent="1" vertex="1">
          <mxGeometry x="513" y="419" width="110" height="30" as="geometry" />
        </mxCell>
        <mxCell id="C4_qEH-SMhasa9ndvBkx-10" style="edgeStyle=orthogonalEdgeStyle;rounded=0;orthogonalLoop=1;jettySize=auto;html=1;exitX=0.5;exitY=0;exitDx=0;exitDy=0;entryX=0.25;entryY=1;entryDx=0;entryDy=0;" parent="1" source="tHKJMBJ2TUP7fWaP2HwY-91" target="tHKJMBJ2TUP7fWaP2HwY-85" edge="1">
          <mxGeometry relative="1" as="geometry">
            <mxPoint x="323" y="317" as="targetPoint" />
            <Array as="points">
              <mxPoint x="348" y="367" />
              <mxPoint x="401" y="367" />
            </Array>
          </mxGeometry>
        </mxCell>
        <mxCell id="tHKJMBJ2TUP7fWaP2HwY-91" value="Object_ID" style="rounded=0;whiteSpace=wrap;html=1;" parent="1" vertex="1">
          <mxGeometry x="293" y="419" width="110" height="30" as="geometry" />
        </mxCell>
        <mxCell id="C4_qEH-SMhasa9ndvBkx-9" style="edgeStyle=orthogonalEdgeStyle;rounded=0;orthogonalLoop=1;jettySize=auto;html=1;exitX=0.5;exitY=1;exitDx=0;exitDy=0;entryX=0.5;entryY=0;entryDx=0;entryDy=0;" parent="1" source="tHKJMBJ2TUP7fWaP2HwY-92" target="tHKJMBJ2TUP7fWaP2HwY-3" edge="1">
          <mxGeometry relative="1" as="geometry" />
        </mxCell>
        <mxCell id="tHKJMBJ2TUP7fWaP2HwY-92" value="User_ID" style="rounded=0;whiteSpace=wrap;html=1;" parent="1" vertex="1">
          <mxGeometry x="183" y="419" width="110" height="30" as="geometry" />
        </mxCell>
        <mxCell id="tHKJMBJ2TUP7fWaP2HwY-93" value="&lt;u&gt;Trans_ID&lt;/u&gt;" style="rounded=0;whiteSpace=wrap;html=1;" parent="1" vertex="1">
          <mxGeometry x="73" y="419" width="110" height="30" as="geometry" />
        </mxCell>
        <mxCell id="tHKJMBJ2TUP7fWaP2HwY-94" value="&lt;b&gt;TRANSACTION&lt;/b&gt;" style="text;html=1;align=center;verticalAlign=middle;resizable=0;points=[];autosize=1;strokeColor=none;fillColor=none;" parent="1" vertex="1">
          <mxGeometry x="63" y="397" width="110" height="30" as="geometry" />
        </mxCell>
        <mxCell id="tHKJMBJ2TUP7fWaP2HwY-95" value="&lt;u&gt;Member_ID&lt;/u&gt;" style="rounded=0;whiteSpace=wrap;html=1;" parent="1" vertex="1">
          <mxGeometry x="363" y="617" width="110" height="30" as="geometry" />
        </mxCell>
        <mxCell id="tHKJMBJ2TUP7fWaP2HwY-96" value="Num_of_Disks" style="rounded=0;whiteSpace=wrap;html=1;" parent="1" vertex="1">
          <mxGeometry x="1413" y="527" width="110" height="30" as="geometry" />
        </mxCell>
        <mxCell id="C4_qEH-SMhasa9ndvBkx-5" value="&lt;b&gt;DISK&lt;/b&gt;" style="text;html=1;align=center;verticalAlign=middle;resizable=0;points=[];autosize=1;strokeColor=none;fillColor=none;" parent="1" vertex="1">
          <mxGeometry x="753" y="367" width="50" height="30" as="geometry" />
        </mxCell>
        <mxCell id="C4_qEH-SMhasa9ndvBkx-15" style="edgeStyle=orthogonalEdgeStyle;rounded=0;orthogonalLoop=1;jettySize=auto;html=1;exitX=0;exitY=0.5;exitDx=0;exitDy=0;entryX=0.5;entryY=1;entryDx=0;entryDy=0;" parent="1" source="C4_qEH-SMhasa9ndvBkx-6" target="tHKJMBJ2TUP7fWaP2HwY-85" edge="1">
          <mxGeometry relative="1" as="geometry" />
        </mxCell>
        <mxCell id="C4_qEH-SMhasa9ndvBkx-6" value="Object_ID" style="rounded=0;whiteSpace=wrap;html=1;" parent="1" vertex="1">
          <mxGeometry x="753" y="389" width="110" height="30" as="geometry" />
        </mxCell>
        <mxCell id="C4_qEH-SMhasa9ndvBkx-7" value="&lt;b&gt;PLAYER&lt;/b&gt;" style="text;html=1;align=center;verticalAlign=middle;resizable=0;points=[];autosize=1;strokeColor=none;fillColor=none;" parent="1" vertex="1">
          <mxGeometry x="665.5" y="255" width="70" height="30" as="geometry" />
        </mxCell>
        <mxCell id="virA9rKdIpHD-8R1ZVtc-1" value="Format" style="rounded=0;whiteSpace=wrap;html=1;" vertex="1" parent="1">
          <mxGeometry x="1083" y="389" width="110" height="30" as="geometry" />
        </mxCell>
        <mxCell id="virA9rKdIpHD-8R1ZVtc-2" value="Type" style="rounded=0;whiteSpace=wrap;html=1;" vertex="1" parent="1">
          <mxGeometry x="403" y="419" width="110" height="30" as="geometry" />
        </mxCell>
      </root>
    </mxGraphModel>
  </diagram>
</mxfile>
